<mxfile host="Electron" modified="2024-04-05T13:36:51.696Z" agent="Mozilla/5.0 (Windows NT 10.0; Win64; x64) AppleWebKit/537.36 (KHTML, like Gecko) draw.io/23.1.5 Chrome/120.0.6099.109 Electron/28.1.0 Safari/537.36" etag="Eo-Q5vZ6wHkMiddx_JFo" version="23.1.5" type="device">
  <diagram name="Страница — 1" id="JLULOAlkJ3aI0VZnD2LQ">
    <mxGraphModel dx="874" dy="572" grid="1" gridSize="10" guides="1" tooltips="1" connect="1" arrows="1" fold="1" page="1" pageScale="1" pageWidth="827" pageHeight="1169" math="0" shadow="0">
      <root>
        <mxCell id="0" />
        <mxCell id="1" parent="0" />
        <mxCell id="gBKuoCQjEU2EA3JGXyk2-4" style="edgeStyle=orthogonalEdgeStyle;rounded=0;orthogonalLoop=1;jettySize=auto;html=1;exitX=0.5;exitY=1;exitDx=0;exitDy=0;entryX=0.5;entryY=0;entryDx=0;entryDy=0;" parent="1" source="gBKuoCQjEU2EA3JGXyk2-1" target="gBKuoCQjEU2EA3JGXyk2-3" edge="1">
          <mxGeometry relative="1" as="geometry" />
        </mxCell>
        <mxCell id="gBKuoCQjEU2EA3JGXyk2-1" value="Начало" style="rounded=1;whiteSpace=wrap;html=1;arcSize=35;" parent="1" vertex="1">
          <mxGeometry x="300" y="230" width="90" height="50" as="geometry" />
        </mxCell>
        <mxCell id="LT99eo08hIVU-prIVblB-2" style="edgeStyle=orthogonalEdgeStyle;rounded=0;orthogonalLoop=1;jettySize=auto;html=1;exitX=0.5;exitY=1;exitDx=0;exitDy=0;entryX=0.5;entryY=0;entryDx=0;entryDy=0;" edge="1" parent="1" source="gBKuoCQjEU2EA3JGXyk2-3" target="LT99eo08hIVU-prIVblB-1">
          <mxGeometry relative="1" as="geometry" />
        </mxCell>
        <mxCell id="gBKuoCQjEU2EA3JGXyk2-3" value="Ввод a, n, d" style="rounded=0;whiteSpace=wrap;html=1;" parent="1" vertex="1">
          <mxGeometry x="281.88" y="320" width="126.25" height="60" as="geometry" />
        </mxCell>
        <mxCell id="LT99eo08hIVU-prIVblB-4" style="edgeStyle=orthogonalEdgeStyle;rounded=0;orthogonalLoop=1;jettySize=auto;html=1;exitX=0.5;exitY=1;exitDx=0;exitDy=0;entryX=0.5;entryY=0;entryDx=0;entryDy=0;" edge="1" parent="1" source="FaUPefRK3cK26D1pfbpW-3" target="FaUPefRK3cK26D1pfbpW-5">
          <mxGeometry relative="1" as="geometry" />
        </mxCell>
        <mxCell id="FaUPefRK3cK26D1pfbpW-3" value="Пока i&amp;lt;n, i + 1" style="shape=trapezoid;perimeter=trapezoidPerimeter;whiteSpace=wrap;html=1;fixedSize=1;" parent="1" vertex="1">
          <mxGeometry x="285" y="480" width="120" height="60" as="geometry" />
        </mxCell>
        <mxCell id="LT99eo08hIVU-prIVblB-5" style="edgeStyle=orthogonalEdgeStyle;rounded=0;orthogonalLoop=1;jettySize=auto;html=1;exitX=0.5;exitY=1;exitDx=0;exitDy=0;entryX=0.5;entryY=0;entryDx=0;entryDy=0;" edge="1" parent="1" source="FaUPefRK3cK26D1pfbpW-5" target="FaUPefRK3cK26D1pfbpW-9">
          <mxGeometry relative="1" as="geometry" />
        </mxCell>
        <mxCell id="FaUPefRK3cK26D1pfbpW-5" value="prog = a * d**i" style="rounded=0;whiteSpace=wrap;html=1;" parent="1" vertex="1">
          <mxGeometry x="285" y="555" width="120" height="60" as="geometry" />
        </mxCell>
        <mxCell id="LT99eo08hIVU-prIVblB-6" style="edgeStyle=orthogonalEdgeStyle;rounded=0;orthogonalLoop=1;jettySize=auto;html=1;exitX=0.5;exitY=1;exitDx=0;exitDy=0;entryX=0.5;entryY=0;entryDx=0;entryDy=0;" edge="1" parent="1" source="FaUPefRK3cK26D1pfbpW-9" target="FaUPefRK3cK26D1pfbpW-11">
          <mxGeometry relative="1" as="geometry" />
        </mxCell>
        <mxCell id="FaUPefRK3cK26D1pfbpW-9" value="Добавить prog&lt;br&gt;&amp;nbsp;в list" style="rounded=0;whiteSpace=wrap;html=1;" parent="1" vertex="1">
          <mxGeometry x="285" y="630" width="120" height="60" as="geometry" />
        </mxCell>
        <mxCell id="LT99eo08hIVU-prIVblB-7" style="edgeStyle=orthogonalEdgeStyle;rounded=0;orthogonalLoop=1;jettySize=auto;html=1;exitX=0.5;exitY=1;exitDx=0;exitDy=0;entryX=0.5;entryY=0;entryDx=0;entryDy=0;" edge="1" parent="1" source="FaUPefRK3cK26D1pfbpW-11" target="FaUPefRK3cK26D1pfbpW-14">
          <mxGeometry relative="1" as="geometry" />
        </mxCell>
        <mxCell id="FaUPefRK3cK26D1pfbpW-11" value="Конец цикла" style="verticalLabelPosition=middle;verticalAlign=middle;html=1;shape=trapezoid;perimeter=trapezoidPerimeter;whiteSpace=wrap;size=0.23;arcSize=10;flipV=1;labelPosition=center;align=center;" parent="1" vertex="1">
          <mxGeometry x="287.5" y="710" width="117.5" height="60" as="geometry" />
        </mxCell>
        <mxCell id="FaUPefRK3cK26D1pfbpW-14" value="Вывод list" style="rounded=0;whiteSpace=wrap;html=1;" parent="1" vertex="1">
          <mxGeometry x="285" y="790" width="120" height="60" as="geometry" />
        </mxCell>
        <mxCell id="LT99eo08hIVU-prIVblB-3" style="edgeStyle=orthogonalEdgeStyle;rounded=0;orthogonalLoop=1;jettySize=auto;html=1;exitX=0.5;exitY=1;exitDx=0;exitDy=0;entryX=0.5;entryY=0;entryDx=0;entryDy=0;" edge="1" parent="1" source="LT99eo08hIVU-prIVblB-1" target="FaUPefRK3cK26D1pfbpW-3">
          <mxGeometry relative="1" as="geometry" />
        </mxCell>
        <mxCell id="LT99eo08hIVU-prIVblB-1" value="Обявление list" style="rounded=0;whiteSpace=wrap;html=1;" vertex="1" parent="1">
          <mxGeometry x="281.88" y="400" width="126.25" height="60" as="geometry" />
        </mxCell>
      </root>
    </mxGraphModel>
  </diagram>
</mxfile>
